# xmcd CD database file
#
# Track frame offsets:
#	150
#	21798
#	34111
#	47337
#	71417
#	87513
#	103335
#	124262
#	141255
#	172244
#	188964
#	207267
#	231392
#	250332
#	278175
#	313112
#	317721
#
# Disc length: 4646 seconds
#
# Revision: 6
# Processed by: cddbd v1.5.2PL0 Copyright (c) Steve Scherf et al.
# Submitted via: CDex 2.03
#
DISCID=03122411
DTITLE=Roberta Flack - The Very Best Of Roberta Flack
DYEAR=2006
DGENRE=NewAge
TTITLE0=Killing Me Softly With His Song
TTITLE1=Where Is The Love  (feat. Donny Hathaway)
TTITLE2=Feel Like Makin' Love
TTITLE3=The First Time Ever I Saw Your Face
TTITLE4=And So It Goes
TTITLE5=Tonight, I Celebrate My Love  (feat. Peabo Bryson)
TTITLE6=The Closer I Get To You  (feat. Donny Hathaway)
TTITLE7='Til The Morning Comes
TTITLE8=Back Together Again  (feat. Donny Hathaway)
TTITLE9=Making Love
TTITLE10=Only Heaven Can Wait (For Love)
TTITLE11=Set The Night To Music  (feat. Maxi Priest)
TTITLE12=You Are My Heaven  (feat. Donny Hathaway)
TTITLE13=Oasis
TTITLE14=Don't Make Me Wait Too Long
TTITLE15=And So It Goes  (Reprise)
TTITLE16=Trade Winds
EXTD=YEAR: 2006
EXTT0=
EXTT1=
EXTT2=
EXTT3=
EXTT4=
EXTT5=
EXTT6=
EXTT7=
EXTT8=
EXTT9=
EXTT10=
EXTT11=
EXTT12=
EXTT13=
EXTT14=
EXTT15=
EXTT16=
PLAYORDER=
